<?xml version="1.0" encoding="UTF-8"?>
<svg width="64px" height="64px" viewBox="0 0 64 64" version="1.1" xmlns="http://www.w3.org/2000/svg" xmlns:xlink="http://www.w3.org/1999/xlink">
    <!-- Generator: Sketch 58 (84663) - https://sketch.com -->
    <title>atoms/icons/64x64/proCourse/hover</title>
    <desc>Created with Sketch.</desc>
    <defs>
        <circle id="path-1" cx="32" cy="32" r="32"></circle>
    </defs>
    <g id="atoms/icons/64x64/proCourse/hover" stroke="none" stroke-width="1" fill="none" fill-rule="evenodd">
        <g id="atoms/shapes/custom" stroke="#FF8875" stroke-width="1.5" fill-rule="nonzero">
            <g id="backgroundColor" stroke="none" stroke-width="1" fill-rule="evenodd">
                <mask id="mask-2" fill="white">
                    <use xlink:href="#path-1"></use>
                </mask>
                <use id="Mask" fill="#D8D8D8" fill-rule="nonzero" xlink:href="#path-1"></use>
                <g id="atoms/colors/action/primary" mask="url(#mask-2)" fill="#40FFA9">
                    <rect id="Rectangle" x="0" y="0" width="64" height="64"></rect>
                </g>
            </g>
        </g>
        <g id="audiance" transform="translate(11.000000, 47.000000)" fill-rule="nonzero" stroke="#464646" stroke-width="1.5">
            <path d="M3.71449989,7.32142857 C1.86304544,7.32142857 0.357374876,5.81575 0.357374876,3.96428571 C0.357374876,2.11282143 1.86304544,0.607142857 3.71449989,0.607142857 C5.56595433,0.607142857 7.07162489,2.11282143 7.07162489,3.96428571 C7.07162489,5.81575 5.56595433,7.32142857 3.71449989,7.32142857 Z" id="Path"></path>
            <path d="M11.1073124,7.32142857 C9.25585797,7.32142857 7.7501874,5.81575 7.7501874,3.96428571 C7.7501874,2.11282143 9.25585797,0.607142857 11.1073124,0.607142857 C12.9587669,0.607142857 14.4644374,2.11282143 14.4644374,3.96428571 C14.4644374,5.81575 12.9587669,7.32142857 11.1073124,7.32142857 Z" id="Path"></path>
            <path d="M18.5001249,7.32142857 C16.6486705,7.32142857 15.1429999,5.81575 15.1429999,3.96428571 C15.1429999,2.11282143 16.6486705,0.607142857 18.5001249,0.607142857 C20.3515794,0.607142857 21.8572499,2.11282143 21.8572499,3.96428571 C21.8572499,5.81575 20.3515794,7.32142857 18.5001249,7.32142857 Z" id="Path"></path>
            <path d="M25.8929375,7.32142857 C24.041483,7.32142857 22.5358124,5.81575 22.5358124,3.96428571 C22.5358124,2.11282143 24.041483,0.607142857 25.8929375,0.607142857 C27.7443919,0.607142857 29.2500625,2.11282143 29.2500625,3.96428571 C29.2500625,5.81575 27.7443919,7.32142857 25.8929375,7.32142857 Z" id="Path"></path>
            <path d="M36.642875,3.96428571 C36.642875,5.81575 35.1372044,7.32142857 33.28575,7.32142857 C31.4342955,7.32142857 29.928625,5.81575 29.928625,3.96428571 C29.928625,2.11282143 31.4342955,0.607142857 33.28575,0.607142857 C35.1372044,0.607142857 36.642875,2.11282143 36.642875,3.96428571 Z" id="Path"></path>
        </g>
        <path d="M31,25.4815042 L31,12 C31,10.8954305 31.8954305,10 33,10 L52,10 C53.1045695,10 54,10.8954305 54,12 L54,36 C54,37.1045695 53.1045695,38 52,38 L33,38 C31.8954305,38 31,37.1045695 31,36 L31,35.6582373 L31,35.6582373" id="Combined-Shape" stroke="#464646" stroke-width="1.5" stroke-linecap="round" stroke-linejoin="round" fill-rule="nonzero"></path>
        <g id="presentation" transform="translate(4.000000, 10.000000)" fill-rule="nonzero">
            <path d="M2.67378391,14.7462321 L4.92893263,20.7597143 C4.98012879,20.8965179 5.06573548,21.0165357 5.17735988,21.1096964 L10.2130474,25.306125 C10.364118,25.4311786 10.5537956,25.5 10.7501874,25.5 L17.4644374,25.5 C17.5777404,25.5 17.6910434,25.4773393 17.7951142,25.4320179 L23.670083,22.9141607 C23.7481362,22.8805893 23.8211536,22.8352679 23.8857783,22.779875 L29.1707323,18.25025 L30.545475,19.625 L25.3603954,24.8101071 L18.7678412,29.1059821 C18.4833249,29.2486607 18.3037187,29.5390536 18.3037187,29.8571429 L18.3040304,35.8444047 C18.3055929,36.6950108 18.3121694,36.8453798 18.3037187,36.8453798 C16.5999777,36.8453798 14.9826828,38.445125 14.0653483,39.7896607 C13.1480139,38.445125 11.6146471,37.5714286 9.91090615,37.5714286 L9.91090615,28.8571429 C9.91090615,28.6347321 9.82278162,28.4207143 9.66499674,28.2637679 L3.09090669,21.6896429 L0.922203934,15.1835 L2.67378391,14.7462321 Z M14,15 C16.209139,15 18,16.790861 18,19 C18,21.209139 16.209139,23 14,23 C11.790861,23 10,21.209139 10,19 C10,16.790861 11.790861,15 14,15 Z" id="Shape" stroke="#464646" stroke-width="1.5" stroke-linecap="round" stroke-linejoin="round"></path>
            <path d="M12.5,28.2013889 L15.5,28.2013889" id="Path" stroke="#464646" stroke-width="1.5" stroke-linecap="round" stroke-linejoin="round"></path>
            <path d="M14,28.2503969 L14,34.5" id="Path" stroke="#464646" stroke-width="1.5" stroke-linecap="round" stroke-linejoin="round"></path>
            <g id="bubble" transform="translate(6.000000, 0.000000)" stroke="#464646" stroke-width="1.5">
                <path d="M5.33965748,10.2120283 L5.83073023,8.25 L12,8.25 C12.6903559,8.25 13.25,7.69035594 13.25,7 L13.25,2 C13.25,1.30964406 12.6903559,0.75 12,0.75 L2,0.75 C1.30964406,0.75 0.75,1.30964406 0.75,2 L0.75,7 C0.75,7.69035594 1.30964406,8.25 2,8.25 L3.49630572,8.25 L5.33965748,10.2120283 Z" id="Rectangle-5"></path>
                <path d="M3.5,4.25 L10.5,4.25" id="Line" stroke-linecap="round"></path>
            </g>
            <g id="screen" transform="translate(30.000000, 3.000000)">
                <path d="M10.4824157,8.08684242 L9.44756818,11.9491996 L13.5457302,11.9396724 L14.4617096,8.0396058 L10.4824157,8.08684242 Z" id="Rectangle-Copy-2" stroke="#FBFBFD" stroke-width="1.5" transform="translate(11.949839, 9.992895) rotate(-322.000000) translate(-11.949839, -9.992895) "></path>
                <path d="M12.25,4.5 L12.25,7.5" id="Line-2" stroke="#FBFBFD" stroke-width="1.5" stroke-linecap="round"></path>
                <path d="M12.25,12.5 L12.25,15.5" id="Line-2-Copy" stroke="#FBFBFD" stroke-width="1.5" stroke-linecap="round"></path>
                <path d="M7.61485293,15.75 L6.91485293,19.25 L16.3851471,19.25 L17.0851471,15.75 L7.61485293,15.75 Z" id="Rectangle-Copy" stroke="#FBFBFD" stroke-width="1.5"></path>
                <path d="M0.5,1.25 L5.5,1.25" id="Line-Copy" stroke="#FBFBFD" stroke-width="1.5" stroke-linecap="round"></path>
                <path d="M0.5,4.25 L5.5,4.25" id="Line-Copy-2" stroke="#FBFBFD" stroke-width="1.5" stroke-linecap="round"></path>
                <path d="M0.5,7.25 L5.5,7.25" id="Line-Copy-3" stroke="#FBFBFD" stroke-width="1.5" stroke-linecap="round"></path>
                <circle id="Oval-3" fill="#464646" cx="14" cy="28" r="1"></circle>
                <circle id="Oval-3-Copy-2" fill="#464646" cx="11" cy="28" r="1"></circle>
                <circle id="Oval-3-Copy" fill="#464646" cx="17" cy="28" r="1"></circle>
                <rect id="Rectangle" stroke="#FBFBFD" stroke-width="1.5" x="7.75" y="0.75" width="8.5" height="3.5" rx="0.5"></rect>
            </g>
        </g>
    </g>
</svg>